<?xml version="1.0" encoding="utf-8"?>
<!-- Generator: Adobe Illustrator 24.0.1, SVG Export Plug-In . SVG Version: 6.00 Build 0)  -->
<svg version="1.1" id="Camada_1" xmlns="http://www.w3.org/2000/svg" xmlns:xlink="http://www.w3.org/1999/xlink" x="0px" y="0px"
	 viewBox="0 0 595.28 156" style="enable-background:new 0 0 595.28 156;" xml:space="preserve">
<style type="text/css">
	.st0{fill:#EEBE6E;}
	.st1{fill:#383938;}
</style>
<g>
	<g>
		<g>
			<polygon class="st0" points="115.52,56.58 100.42,78.94 64.3,82.75 50.99,107.12 89.9,128.36 121.18,71.09 			"/>
			<path class="st1" d="M113.84,50.31L92.99,30.23l-64.9,6.84l4.65,44.08l64.9-6.84L113.84,50.31z M101.11,52.89
				c-1.31-1.51-1.15-3.79,0.35-5.1c1.51-1.31,3.79-1.15,5.1,0.36c1.31,1.51,1.15,3.79-0.35,5.1
				C104.7,54.56,102.42,54.4,101.11,52.89z"/>
		</g>
		<g>
			<g>
				<path class="st0" d="M143.79,91.68V75.3h2.31l5.25,8.28c1.21,1.92,2.16,3.64,2.94,5.32l0.05-0.02
					c-0.19-2.19-0.24-4.18-0.24-6.73V75.3h1.99v16.37h-2.14l-5.2-8.31c-1.14-1.82-2.23-3.69-3.06-5.47l-0.07,0.02
					c0.12,2.06,0.17,4.03,0.17,6.75v7H143.79z"/>
				<path class="st0" d="M167.48,91.68l-0.17-1.48h-0.07c-0.66,0.92-1.92,1.75-3.6,1.75c-2.38,0-3.59-1.68-3.59-3.38
					c0-2.84,2.53-4.4,7.07-4.37v-0.24c0-0.97-0.27-2.72-2.67-2.72c-1.09,0-2.23,0.34-3.06,0.87l-0.49-1.41
					c0.97-0.63,2.38-1.04,3.86-1.04c3.59,0,4.47,2.45,4.47,4.81v4.4c0,1.02,0.05,2.02,0.19,2.82H167.48z M167.17,85.68
					c-2.33-0.05-4.98,0.36-4.98,2.65c0,1.38,0.92,2.04,2.02,2.04c1.53,0,2.5-0.97,2.84-1.97c0.07-0.22,0.12-0.46,0.12-0.68V85.68z"
					/>
				<path class="st0" d="M180.36,83.76c0-1.51-0.05-2.72-0.1-3.84h1.92l0.1,2.02h0.05c0.87-1.43,2.26-2.28,4.18-2.28
					c2.84,0,4.98,2.4,4.98,5.98c0,4.23-2.58,6.32-5.34,6.32c-1.55,0-2.92-0.68-3.62-1.85h-0.05v6.39h-2.11V83.76z M182.47,86.89
					c0,0.32,0.05,0.61,0.1,0.87c0.39,1.48,1.68,2.5,3.21,2.5c2.26,0,3.57-1.85,3.57-4.54c0-2.36-1.24-4.37-3.5-4.37
					c-1.46,0-2.82,1.04-3.23,2.65c-0.07,0.27-0.15,0.58-0.15,0.87V86.89z"/>
				<path class="st0" d="M195.45,83.59c0-1.38-0.02-2.57-0.1-3.67h1.87l0.07,2.31h0.1c0.53-1.58,1.82-2.57,3.25-2.57
					c0.24,0,0.41,0.02,0.61,0.07v2.02c-0.22-0.05-0.44-0.07-0.73-0.07c-1.51,0-2.57,1.14-2.87,2.75c-0.05,0.29-0.1,0.63-0.1,1v6.27
					h-2.11V83.59z"/>
				<path class="st0" d="M207.13,76.62c0.02,0.73-0.51,1.31-1.36,1.31c-0.75,0-1.29-0.58-1.29-1.31c0-0.75,0.56-1.34,1.34-1.34
					C206.62,75.28,207.13,75.86,207.13,76.62z M204.75,91.68V79.92h2.14v11.76H204.75z"/>
				<path class="st0" d="M211.7,83.1c0-1.21-0.02-2.21-0.1-3.18h1.87l0.1,1.9h0.07c0.66-1.12,1.75-2.16,3.69-2.16
					c1.6,0,2.82,0.97,3.33,2.36h0.05c0.36-0.66,0.83-1.17,1.31-1.53c0.7-0.53,1.48-0.83,2.6-0.83c1.55,0,3.86,1.02,3.86,5.1v6.92
					h-2.09v-6.66c0-2.26-0.83-3.62-2.55-3.62c-1.21,0-2.16,0.9-2.53,1.94c-0.1,0.29-0.17,0.68-0.17,1.07v7.26h-2.09v-7.04
					c0-1.87-0.83-3.23-2.45-3.23c-1.34,0-2.31,1.07-2.65,2.14c-0.12,0.32-0.17,0.68-0.17,1.04v7.09h-2.09V83.1z"/>
				<path class="st0" d="M234.42,86.19c0.05,2.89,1.89,4.08,4.03,4.08c1.53,0,2.45-0.27,3.25-0.61l0.37,1.53
					c-0.75,0.34-2.04,0.73-3.91,0.73c-3.62,0-5.78-2.38-5.78-5.93c0-3.55,2.09-6.34,5.51-6.34c3.84,0,4.86,3.38,4.86,5.54
					c0,0.44-0.05,0.78-0.07,1H234.42z M240.68,84.66c0.02-1.36-0.56-3.47-2.96-3.47c-2.16,0-3.11,1.99-3.28,3.47H240.68z"/>
				<path class="st0" d="M249.04,76.62c0.02,0.73-0.51,1.31-1.36,1.31c-0.75,0-1.29-0.58-1.29-1.31c0-0.75,0.56-1.34,1.34-1.34
					C248.53,75.28,249.04,75.86,249.04,76.62z M246.66,91.68V79.92h2.14v11.76H246.66z"/>
				<path class="st0" d="M253.61,83.59c0-1.38-0.02-2.57-0.1-3.67h1.87l0.07,2.31h0.1c0.53-1.58,1.82-2.57,3.25-2.57
					c0.24,0,0.41,0.02,0.61,0.07v2.02c-0.22-0.05-0.44-0.07-0.73-0.07c-1.51,0-2.58,1.14-2.87,2.75c-0.05,0.29-0.1,0.63-0.1,1v6.27
					h-2.11V83.59z"/>
				<path class="st0" d="M269.21,91.68l-0.17-1.48h-0.07c-0.66,0.92-1.92,1.75-3.6,1.75c-2.38,0-3.59-1.68-3.59-3.38
					c0-2.84,2.53-4.4,7.07-4.37v-0.24c0-0.97-0.27-2.72-2.67-2.72c-1.09,0-2.23,0.34-3.06,0.87l-0.49-1.41
					c0.97-0.63,2.38-1.04,3.86-1.04c3.59,0,4.47,2.45,4.47,4.81v4.4c0,1.02,0.05,2.02,0.19,2.82H269.21z M268.89,85.68
					c-2.33-0.05-4.98,0.36-4.98,2.65c0,1.38,0.92,2.04,2.02,2.04c1.53,0,2.5-0.97,2.84-1.97c0.07-0.22,0.12-0.46,0.12-0.68V85.68z"
					/>
				<path class="st0" d="M290.46,91.24c-0.56,0.29-1.8,0.68-3.38,0.68c-3.55,0-5.85-2.41-5.85-6c0-3.62,2.48-6.24,6.32-6.24
					c1.26,0,2.38,0.32,2.96,0.61l-0.49,1.65c-0.51-0.29-1.31-0.56-2.48-0.56c-2.7,0-4.15,1.99-4.15,4.45c0,2.72,1.75,4.4,4.08,4.4
					c1.21,0,2.02-0.32,2.62-0.58L290.46,91.24z"/>
				<path class="st0" d="M304.73,85.7c0,4.35-3.01,6.24-5.85,6.24c-3.18,0-5.64-2.33-5.64-6.05c0-3.94,2.58-6.24,5.83-6.24
					C302.44,79.65,304.73,82.1,304.73,85.7z M295.4,85.82c0,2.58,1.48,4.52,3.57,4.52c2.04,0,3.57-1.92,3.57-4.57
					c0-1.99-1-4.52-3.52-4.52S295.4,83.59,295.4,85.82z"/>
				<path class="st0" d="M308.69,83.1c0-1.21-0.02-2.21-0.1-3.18h1.87l0.1,1.9h0.07c0.66-1.12,1.75-2.16,3.69-2.16
					c1.6,0,2.82,0.97,3.33,2.36h0.05c0.36-0.66,0.83-1.17,1.31-1.53c0.7-0.53,1.48-0.83,2.6-0.83c1.55,0,3.86,1.02,3.86,5.1v6.92
					h-2.09v-6.66c0-2.26-0.83-3.62-2.55-3.62c-1.21,0-2.16,0.9-2.53,1.94c-0.1,0.29-0.17,0.68-0.17,1.07v7.26h-2.09v-7.04
					c0-1.87-0.83-3.23-2.45-3.23c-1.34,0-2.31,1.07-2.65,2.14c-0.12,0.32-0.17,0.68-0.17,1.04v7.09h-2.09V83.1z"/>
				<path class="st0" d="M330.21,83.76c0-1.51-0.05-2.72-0.1-3.84h1.92l0.1,2.02h0.05c0.88-1.43,2.26-2.28,4.18-2.28
					c2.84,0,4.98,2.4,4.98,5.98c0,4.23-2.57,6.32-5.34,6.32c-1.55,0-2.92-0.68-3.62-1.85h-0.05v6.39h-2.11V83.76z M332.33,86.89
					c0,0.32,0.05,0.61,0.1,0.87c0.39,1.48,1.68,2.5,3.21,2.5c2.26,0,3.57-1.85,3.57-4.54c0-2.36-1.24-4.37-3.5-4.37
					c-1.46,0-2.82,1.04-3.23,2.65c-0.07,0.27-0.15,0.58-0.15,0.87V86.89z"/>
				<path class="st0" d="M345.3,83.59c0-1.38-0.02-2.57-0.1-3.67h1.87l0.07,2.31h0.1c0.53-1.58,1.82-2.57,3.25-2.57
					c0.24,0,0.41,0.02,0.61,0.07v2.02c-0.22-0.05-0.44-0.07-0.73-0.07c-1.51,0-2.58,1.14-2.87,2.75c-0.05,0.29-0.1,0.63-0.1,1v6.27
					h-2.11V83.59z"/>
				<path class="st0" d="M360.9,91.68l-0.17-1.48h-0.07c-0.66,0.92-1.92,1.75-3.6,1.75c-2.38,0-3.59-1.68-3.59-3.38
					c0-2.84,2.53-4.4,7.07-4.37v-0.24c0-0.97-0.27-2.72-2.67-2.72c-1.09,0-2.23,0.34-3.06,0.87l-0.49-1.41
					c0.97-0.63,2.38-1.04,3.86-1.04c3.59,0,4.47,2.45,4.47,4.81v4.4c0,1.02,0.05,2.02,0.19,2.82H360.9z M360.58,85.68
					c-2.33-0.05-4.98,0.36-4.98,2.65c0,1.38,0.92,2.04,2.02,2.04c1.53,0,2.5-0.97,2.84-1.97c0.07-0.22,0.12-0.46,0.12-0.68V85.68z"
					/>
				<path class="st0" d="M373.78,83.1c0-1.21-0.02-2.21-0.1-3.18h1.9l0.12,1.94h0.05c0.58-1.12,1.94-2.21,3.89-2.21
					c1.63,0,4.15,0.97,4.15,5v7.02h-2.14V84.9c0-1.9-0.7-3.47-2.72-3.47c-1.41,0-2.5,1-2.87,2.19c-0.1,0.27-0.15,0.63-0.15,1v7.07
					h-2.14V83.1z"/>
				<path class="st0" d="M399.16,85.7c0,4.35-3.01,6.24-5.85,6.24c-3.18,0-5.64-2.33-5.64-6.05c0-3.94,2.58-6.24,5.83-6.24
					C396.88,79.65,399.16,82.1,399.16,85.7z M389.83,85.82c0,2.58,1.48,4.52,3.57,4.52c2.04,0,3.57-1.92,3.57-4.57
					c0-1.99-1-4.52-3.52-4.52C390.93,81.25,389.83,83.59,389.83,85.82z"/>
				<path class="st0" d="M409.25,89.49c0.63,0.41,1.75,0.85,2.82,0.85c1.55,0,2.28-0.78,2.28-1.75c0-1.02-0.61-1.58-2.19-2.16
					c-2.11-0.75-3.11-1.92-3.11-3.33c0-1.89,1.53-3.45,4.06-3.45c1.19,0,2.23,0.34,2.89,0.73l-0.54,1.55
					c-0.46-0.29-1.31-0.68-2.4-0.68c-1.26,0-1.97,0.73-1.97,1.6c0,0.97,0.7,1.41,2.23,1.99c2.04,0.78,3.08,1.8,3.08,3.55
					c0,2.06-1.6,3.52-4.4,3.52c-1.29,0-2.48-0.32-3.3-0.8L409.25,89.49z"/>
				<path class="st0" d="M422.8,76.62c0.02,0.73-0.51,1.31-1.36,1.31c-0.75,0-1.29-0.58-1.29-1.31c0-0.75,0.56-1.34,1.34-1.34
					C422.29,75.28,422.8,75.86,422.8,76.62z M420.42,91.68V79.92h2.14v11.76H420.42z"/>
				<path class="st0" d="M429.95,76.54v3.38h3.06v1.63h-3.06v6.34c0,1.46,0.41,2.28,1.6,2.28c0.56,0,0.97-0.07,1.24-0.15l0.1,1.6
					c-0.41,0.17-1.07,0.29-1.89,0.29c-1,0-1.8-0.32-2.31-0.9c-0.61-0.63-0.83-1.68-0.83-3.06v-6.41h-1.82v-1.63h1.82V77.1
					L429.95,76.54z"/>
				<path class="st0" d="M437.72,86.19c0.05,2.89,1.89,4.08,4.03,4.08c1.53,0,2.45-0.27,3.25-0.61l0.36,1.53
					c-0.75,0.34-2.04,0.73-3.91,0.73c-3.62,0-5.78-2.38-5.78-5.93c0-3.55,2.09-6.34,5.51-6.34c3.84,0,4.86,3.38,4.86,5.54
					c0,0.44-0.05,0.78-0.07,1H437.72z M443.99,84.66c0.02-1.36-0.56-3.47-2.96-3.47c-2.16,0-3.11,1.99-3.28,3.47H443.99z"/>
				<path class="st0" d="M458.96,76.54v3.38h3.06v1.63h-3.06v6.34c0,1.46,0.41,2.28,1.6,2.28c0.56,0,0.97-0.07,1.24-0.15l0.1,1.6
					c-0.41,0.17-1.07,0.29-1.9,0.29c-1,0-1.8-0.32-2.31-0.9c-0.61-0.63-0.83-1.68-0.83-3.06v-6.41h-1.82v-1.63h1.82V77.1
					L458.96,76.54z"/>
				<path class="st0" d="M476.18,85.7c0,4.35-3.01,6.24-5.85,6.24c-3.18,0-5.64-2.33-5.64-6.05c0-3.94,2.58-6.24,5.83-6.24
					C473.9,79.65,476.18,82.1,476.18,85.7z M466.85,85.82c0,2.58,1.48,4.52,3.57,4.52c2.04,0,3.57-1.92,3.57-4.57
					c0-1.99-1-4.52-3.52-4.52C467.94,81.25,466.85,83.59,466.85,85.82z"/>
				<path class="st0" d="M490.3,74.43v14.21c0,1.04,0.02,2.23,0.1,3.04h-1.92l-0.1-2.04h-0.05c-0.66,1.31-2.09,2.31-4.01,2.31
					c-2.84,0-5.03-2.4-5.03-5.98c-0.02-3.91,2.41-6.32,5.27-6.32c1.8,0,3.01,0.85,3.55,1.8h0.05v-7.02H490.3z M488.16,84.7
					c0-0.27-0.02-0.63-0.1-0.9c-0.32-1.36-1.48-2.48-3.08-2.48c-2.21,0-3.52,1.94-3.52,4.54c0,2.38,1.17,4.35,3.47,4.35
					c1.43,0,2.75-0.95,3.13-2.55c0.07-0.29,0.1-0.58,0.1-0.92V84.7z"/>
				<path class="st0" d="M505.75,85.7c0,4.35-3.01,6.24-5.85,6.24c-3.18,0-5.64-2.33-5.64-6.05c0-3.94,2.58-6.24,5.83-6.24
					C503.46,79.65,505.75,82.1,505.75,85.7z M496.42,85.82c0,2.58,1.48,4.52,3.57,4.52c2.04,0,3.57-1.92,3.57-4.57
					c0-1.99-1-4.52-3.52-4.52C497.51,81.25,496.42,83.59,496.42,85.82z"/>
				<path class="st0" d="M509.3,90.44c0-0.87,0.61-1.51,1.43-1.51c0.87,0,1.43,0.63,1.43,1.51c0,0.85-0.56,1.51-1.43,1.51
					C509.88,91.94,509.3,91.29,509.3,90.44z M509.9,86.96l-0.34-11.66h2.33l-0.34,11.66H509.9z"/>
			</g>
			<g>
				<path class="st1" d="M148.99,48.23h-0.06l-3.37,1.82l-0.51-2l4.24-2.27h2.24v19.39h-2.54V48.23z"/>
				<path class="st1" d="M176.55,55.27c0,6.59-2.45,10.23-6.74,10.23c-3.79,0-6.35-3.55-6.41-9.96c0-6.5,2.8-10.08,6.74-10.08
					C174.22,45.46,176.55,49.1,176.55,55.27z M166.02,55.57c0,5.04,1.55,7.91,3.94,7.91c2.68,0,3.97-3.13,3.97-8.08
					c0-4.77-1.22-7.91-3.94-7.91C167.69,47.49,166.02,50.29,166.02,55.57z"/>
				<path class="st1" d="M192.78,51.25c0,4.09-2.15,6.12-4.65,6.12c-2.42,0-4.5-1.94-4.53-5.85c0-3.88,2.12-6.06,4.68-6.06
					C190.99,45.46,192.78,47.55,192.78,51.25z M185.68,51.43c-0.06,2.48,0.87,4.35,2.51,4.35c1.73,0,2.51-1.85,2.51-4.41
					c0-2.36-0.69-4.33-2.51-4.33C186.54,47.04,185.68,48.98,185.68,51.43z M187.95,65.51l11.4-20.05h1.67l-11.4,20.05H187.95z
					 M205.4,59.27c0,4.09-2.15,6.12-4.62,6.12c-2.42,0-4.5-1.94-4.53-5.82c0-3.91,2.12-6.09,4.68-6.09
					C203.64,53.48,205.4,55.57,205.4,59.27z M198.3,59.45c-0.03,2.48,0.92,4.36,2.54,4.36c1.73,0,2.51-1.85,2.51-4.42
					c0-2.36-0.69-4.33-2.51-4.33C199.19,55.07,198.3,57,198.3,59.45z"/>
				<path class="st1" d="M237.43,44v17.45c0,1.28,0.03,2.74,0.12,3.73h-2.36l-0.12-2.51h-0.06c-0.81,1.61-2.57,2.83-4.92,2.83
					c-3.49,0-6.17-2.95-6.17-7.34c-0.03-4.8,2.95-7.76,6.47-7.76c2.21,0,3.7,1.04,4.36,2.21h0.06V44H237.43z M234.81,56.62
					c0-0.33-0.03-0.78-0.12-1.1c-0.39-1.67-1.82-3.04-3.79-3.04c-2.71,0-4.33,2.39-4.33,5.58c0,2.92,1.43,5.34,4.27,5.34
					c1.76,0,3.37-1.16,3.85-3.13c0.09-0.36,0.12-0.72,0.12-1.13V56.62z"/>
				<path class="st1" d="M248.32,58.44c0.06,3.55,2.33,5.01,4.95,5.01c1.88,0,3.01-0.33,4-0.75l0.45,1.88
					c-0.92,0.42-2.51,0.9-4.8,0.9c-4.45,0-7.1-2.92-7.1-7.28s2.57-7.79,6.77-7.79c4.71,0,5.97,4.15,5.97,6.8
					c0,0.54-0.06,0.95-0.09,1.22H248.32z M256.02,56.56c0.03-1.67-0.69-4.27-3.64-4.27c-2.66,0-3.82,2.45-4.03,4.27H256.02z"/>
				<path class="st1" d="M278.36,45.34c1.58-0.24,3.46-0.42,5.52-0.42c3.73,0,6.38,0.87,8.14,2.51c1.79,1.64,2.83,3.97,2.83,7.22
					c0,3.28-1.01,5.97-2.89,7.82c-1.88,1.88-4.98,2.89-8.89,2.89c-1.85,0-3.4-0.09-4.71-0.24V45.34z M280.95,63.12
					c0.66,0.12,1.61,0.15,2.63,0.15c5.55,0,8.56-3.1,8.56-8.53c0.03-4.74-2.66-7.76-8.14-7.76c-1.34,0-2.36,0.12-3.04,0.27V63.12z"
					/>
				<path class="st1" d="M304.79,58.44c0.06,3.55,2.33,5.01,4.95,5.01c1.88,0,3.01-0.33,4-0.75l0.45,1.88
					c-0.92,0.42-2.51,0.9-4.8,0.9c-4.45,0-7.1-2.92-7.1-7.28s2.57-7.79,6.77-7.79c4.71,0,5.97,4.15,5.97,6.8
					c0,0.54-0.06,0.95-0.09,1.22H304.79z M312.48,56.56c0.03-1.67-0.69-4.27-3.64-4.27c-2.66,0-3.82,2.45-4.03,4.27H312.48z"/>
				<path class="st1" d="M322.98,62.49c0.78,0.51,2.15,1.04,3.46,1.04c1.91,0,2.8-0.95,2.8-2.15c0-1.25-0.75-1.94-2.68-2.65
					c-2.59-0.92-3.82-2.36-3.82-4.09c0-2.33,1.88-4.24,4.98-4.24c1.46,0,2.74,0.42,3.55,0.89l-0.66,1.91
					c-0.57-0.36-1.61-0.83-2.95-0.83c-1.55,0-2.42,0.9-2.42,1.97c0,1.19,0.87,1.73,2.74,2.45c2.51,0.95,3.79,2.21,3.79,4.35
					c0,2.54-1.97,4.33-5.4,4.33c-1.58,0-3.04-0.39-4.06-0.98L322.98,62.49z"/>
				<path class="st1" d="M350.51,64.64c-0.69,0.36-2.21,0.84-4.15,0.84c-4.36,0-7.19-2.95-7.19-7.37c0-4.44,3.04-7.67,7.76-7.67
					c1.55,0,2.92,0.39,3.64,0.75l-0.6,2.03c-0.63-0.36-1.61-0.69-3.04-0.69c-3.31,0-5.1,2.45-5.1,5.46c0,3.34,2.15,5.4,5.01,5.4
					c1.49,0,2.48-0.39,3.22-0.72L350.51,64.64z"/>
				<path class="st1" d="M371.54,57.84c0,5.34-3.7,7.67-7.19,7.67c-3.91,0-6.92-2.86-6.92-7.43c0-4.83,3.16-7.67,7.16-7.67
					C368.74,50.41,371.54,53.42,371.54,57.84z M360.09,57.99c0,3.16,1.82,5.55,4.38,5.55c2.51,0,4.39-2.36,4.39-5.61
					c0-2.45-1.22-5.55-4.33-5.55C361.43,52.38,360.09,55.24,360.09,57.99z"/>
				<path class="st1" d="M379.93,54.65c0-1.49-0.03-2.71-0.12-3.91h2.33l0.15,2.39h0.06c0.72-1.37,2.39-2.71,4.77-2.71
					c2,0,5.1,1.19,5.1,6.15v8.62h-2.63v-8.32c0-2.33-0.87-4.27-3.34-4.27c-1.73,0-3.07,1.22-3.52,2.69
					c-0.12,0.33-0.18,0.78-0.18,1.22v8.68h-2.63V54.65z"/>
				<path class="st1" d="M404.6,46.59v4.15h3.76v2h-3.76v7.79c0,1.79,0.51,2.8,1.97,2.8c0.69,0,1.19-0.09,1.52-0.18l0.12,1.97
					c-0.51,0.21-1.31,0.36-2.33,0.36c-1.22,0-2.21-0.39-2.83-1.1c-0.75-0.78-1.01-2.06-1.01-3.76v-7.88h-2.24v-2h2.24v-3.46
					L404.6,46.59z"/>
				<path class="st1" d="M429.26,57.84c0,5.34-3.7,7.67-7.19,7.67c-3.91,0-6.92-2.86-6.92-7.43c0-4.83,3.16-7.67,7.16-7.67
					C426.46,50.41,429.26,53.42,429.26,57.84z M417.81,57.99c0,3.16,1.82,5.55,4.39,5.55c2.51,0,4.38-2.36,4.38-5.61
					c0-2.45-1.22-5.55-4.33-5.55S417.81,55.24,417.81,57.99z"/>
			</g>
		</g>
	</g>
	<rect x="130.62" y="30.49" class="st0" width="2.16" height="74.23"/>
</g>
</svg>
